<svg xmlns="http://www.w3.org/2000/svg" width="538.7" height="579.8" viewBox="0 0 538.71577 579.81872" xmlns:xlink="http://www.w3.org/1999/xlink"><path d="M 506.8 441.5 H 101.8 c -7.5 0 -13.6 -6.1 -13.6 -13.6 V 98.1 c 0 -7.5 6.1 -13.6 13.6 -13.6 H 506.8 c 7.5 0 13.6 6.1 13.6 13.6 V 427.8 c 0 7.5 -6.1 13.6 -13.6 13.6 Z" fill="#e6e6e6"/><path d="M 467.4 432.3 H 111 c -7.5 0 -13.6 -6.1 -13.6 -13.6 V 107.3 c 0 -7.5 6.1 -13.6 13.6 -13.6 H 497.6 c 7.5 0 13.6 6.1 13.6 13.6 V 388.5 c 0 24.2 -19.6 43.7 -43.8 43.8 Z" fill="#ffffff"/><path d="M 369.5 164.1 H 206.7 c -1.9 0 -3.5 -1.6 -3.5 -3.5 s 1.6 -3.5 3.5 -3.5 h 162.8 c 1.9 0 3.5 1.6 3.5 3.5 s -1.6 3.5 -3.5 3.5 Z" fill="#007db2"/><path d="M 451.9 201.6 H 206.7 c -1.9 0 -3.5 -1.6 -3.5 -3.5 s 1.6 -3.5 3.5 -3.5 h 245.1 c 1.9 0 3.5 1.6 3.5 3.5 s -1.6 3.5 -3.5 3.5 Z" fill="#e6e6e6"/><path d="M 451.9 239 H 206.7 c -1.9 0 -3.5 -1.6 -3.5 -3.5 s 1.6 -3.5 3.5 -3.5 h 245.1 c 1.9 0 3.5 1.6 3.5 3.5 s -1.6 3.5 -3.5 3.5 Z" fill="#e6e6e6"/><path d="M 451.9 276.4 H 206.7 c -1.9 0 -3.5 -1.6 -3.5 -3.5 s 1.6 -3.5 3.5 -3.5 h 245.1 c 1.9 0 3.5 1.6 3.5 3.5 s -1.6 3.5 -3.5 3.5 Z" fill="#e6e6e6"/><path d="M 451.9 313.9 H 206.7 c -1.9 0 -3.5 -1.6 -3.5 -3.5 s 1.6 -3.5 3.5 -3.5 h 245.1 c 1.9 0 3.5 1.6 3.5 3.5 s -1.6 3.5 -3.5 3.5 Z" fill="#e6e6e6"/><path d="M 440.8 373.6 c -9.8 0 -17.8 -8 -17.8 -17.8 s 8 -17.8 17.8 -17.8 c 9.8 0 17.8 8 17.8 17.8 h 0 c 0 9.8 -8 17.8 -17.8 17.8 Z" fill="#007db2"/><path d="M 450.8 355 l -5 -7.4 c -0.5 -0.7 -1.4 -0.9 -2.1 -0.4 c -0.7 0.5 -0.9 1.4 -0.4 2.1 l 0 0 l 3.3 4.8 h -12.8 c -1 0 -1.8 0.8 -1.8 1.7 s 0.8 1.8 1.7 1.8 h 12.9 l -3.4 5 c -0.5 0.7 -0.3 1.6 0.4 2.1 c 0.7 0.5 1.6 0.3 2.1 -0.4 l 5 -7.4 c 0.3 -0.6 0.3 -1.3 0 -1.9 Z" fill="#ffffff"/><path d="M 536.9 35.9 H 71.7 c -1 0 -1.8 -0.8 -1.8 -1.8 c 0 -1 0.8 -1.7 1.8 -1.8 h 465.3 c 1 0 1.8 0.8 1.8 1.8 c 0 1 -0.8 1.7 -1.8 1.8 Z" fill="#cacaca"/><path d="M 129.9 392 c 2.7 -2.3 3 -6.3 0.8 -8.9 c -0.2 -0.3 -0.5 -0.6 -0.8 -0.8 l -3.9 -33.3 l -12.2 2.8 l 6.8 31.6 c -2.1 2.8 -1.5 6.8 1.4 8.9 c 2.4 1.7 5.6 1.6 7.9 -0.3 Z" fill="#ffb6b6"/><path d="M 128.6 354.4 l -14.2 8.8 s -0.9 5.2 -1.8 -7.8 c -0.1 -1.4 0.8 -3.7 0.7 -5.1 c -0.1 -1.6 -4.6 -2.3 -4.7 -3.9 c -0.1 -1.1 1.2 -2.1 1.1 -3.3 c -0.1 -1.7 -0.3 -3.4 -0.4 -5.1 c -0.1 -1.4 -1.7 -2.3 -1.8 -3.6 c -0.1 -1.4 1.3 -3.2 1.2 -4.5 c -0.7 -9.7 1.8 -34.1 1.8 -34.6 c -0.2 -1.2 -0.7 -2.4 -1.5 -3.4 l 0.8 -2.3 l -0.5 -4.2 c -0.7 -5.6 0.5 -11.2 3.3 -16.1 h 0 l 3.6 -2.4 l 16.6 27.9 c -7 24.2 -11.5 33.6 -4.2 59.4 Z" fill="#007db2"/><polygon points="117.6,562.6 126.1,562.6 130.2,529.5 117.6,529.5 117.6,562.6" fill="#ffb6b6"/><path d="M 114.8 556.7 l 13.7 -0.8 v 5.9 l 13 9 c 1.7 1.1 2.1 3.4 0.9 5.1 c -0.7 1 -1.8 1.6 -3 1.6 h -16.3 l -2.8 -5.8 l -1.1 5.8 h -6.1 l 1.7 -20.7 Z" fill="#2f2e41"/><polygon points="165.7,562.6 174.3,562.6 178.3,529.5 165.7,529.5 165.7,562.6" fill="#ffb6b6"/><path d="M 162.9 556.7 l 13.7 -0.8 v 5.9 l 13 9 c 1.7 1.1 2.1 3.4 0.9 5.1 c -0.7 1 -1.8 1.6 -3 1.6 h -16.3 l -2.8 -5.8 l -1.1 5.8 h -6.1 l 1.7 -20.7 Z" fill="#2f2e41"/><path d="M 113.9 534.1 h 0 l 1.6 -78.7 c -2.2 -4.2 -2.1 -9.2 0.2 -13.3 l 0.2 -0.4 l -0.6 -2.8 c -0.8 -3.6 -0.4 -7.4 1 -10.9 l 1.5 -50.1 c -5.5 -35.6 20.7 -58.8 20.7 -58.8 h 39.2 l 8.4 28.9 c 5.6 54.2 4.6 132 -4.3 183.2 l 0.2 0.1 c 0.9 0.5 1.3 1.7 0.8 2.7 c -0.4 1.2 -1.4 1.9 -2.3 1.6 l -20.7 -0.7 c -0.9 -0.5 -1.3 -1.7 -0.8 -2.7 c 0.4 -1.2 1.4 -1.9 2.3 -1.6 l 1.4 0.7 l -1.5 -3 c -1.8 -3.6 -1.4 -7.9 0.9 -11.2 h 0 l -0.3 -6.5 h 0 c -2.2 -2.6 -2.9 -6.1 -1.9 -9.3 l 1.4 -4.6 l -1.6 -42.2 l 0.3 -9.5 l -0.7 -10.7 l -3.2 -48.3 l -12 59.4 l -12.3 89.3 c 0.6 0.5 0.9 1.4 0.7 2.2 c -0.3 1.1 -1.2 1.8 -2.3 1.8 h -16.7 c -1.3 0 -2.3 -1 -2.3 -2.3 c 0 -0.2 0 -0.4 0.1 -0.6 c 0.3 -1 1.2 -1.7 2.2 -1.7 Z" fill="#2f2e41"/><path d="M 209.2 379.1 c 2.2 -2.7 1.8 -6.7 -0.9 -8.9 c -0.3 -0.2 -0.6 -0.4 -0.9 -0.6 l -10.1 -32 l -11.5 5.1 l 12.7 29.7 c -1.5 3.2 -0.1 7 3.1 8.5 c 2.7 1.3 5.9 0.5 7.7 -1.8 h 0 Z" fill="#ffb6b6"/><path d="M 167.6 277.5 s 11.5 40.8 11 44.9 c -1.1 8.5 -54.1 34.6 -58 23 l 0.5 -3.8 c -2 -4 10.2 -19.8 10.7 -21.8 c 0.7 -2.6 -2.6 -11.3 -2.6 -11.3 c 0 0 2.3 -7.9 2 -12.8 c -0.4 -4.9 -1.5 -4.1 -5.7 -7.2 c -4.1 -3 -10.9 -17 -10.9 -17 c 0 0 3 -13.6 3 -16.2 s 12.4 -7.1 13.9 -8.6 c 0.7 -0.9 1.2 -1.8 1.6 -2.8 c 0.3 -0.6 0.1 -2 0.4 -2.7 c 0.2 -0.5 0.9 -0.2 1.2 -0.6 c 0.2 -0.5 0 -1 0.2 -1.4 c 0.3 -0.6 0.9 -1.1 1.2 -1.7 c 1.2 -2.6 2.2 -4.7 2.5 -4.7 c 0.7 0 24.9 3.4 24.9 3.4 c 1.3 2 2.8 3.9 4.5 5.7 c 2.6 2.6 15 9.1 15 9.1 l -15.5 26.8 Z" fill="#007db2"/><path d="M 200.2 346.2 c -1.9 1.9 -11.2 10.5 -11.6 8.3 c -0.4 -2.3 -0.6 -2.5 -2.1 -3.3 c -1.5 -0.8 -1.5 -1.1 -1.9 -3.8 c -0.4 -2.6 -3.8 -5.3 -3.4 -6.4 c 0.4 -1.1 0 0.3 0 -0.8 c 0 -1.1 -1.1 -5.3 -2.6 -6 c -1.5 -0.8 -3.8 -1.5 -2.6 -3.4 c 1.1 -1.9 -10.6 -58.5 -10.6 -58.5 l 10.6 -20.7 l 7.2 -0.8 s 2.2 1.2 2.9 12.5 c 0 0.6 0.7 1.6 0.7 2.2 c 0 0.5 -0.5 0.6 -0.5 1.2 c 0 0.1 0 0.2 0 0.4 c 0 0.6 1.5 1 1.5 1.5 c 0 0.9 0.6 7 0.7 7.9 c 0.1 1 0.2 2 0.3 2.9 c 1 10.1 1.4 11 2.1 14.2 c 1 5 5.1 34.2 5.1 34.2 c 0 0 3 0.7 3 3.4 s 3.3 8 1.8 11 c -1.5 3 1.5 2.3 -0.4 4.2 Z" fill="#007db2"/><circle cx="148.9" cy="213.9" r="17.9" fill="#ffb8b8"/><path d="M 110.3 251.5 c -3.8 -1.3 -7.6 -2.7 -11.4 -4 c 0.7 -1.1 1.5 -2.1 2.5 -2.9 c 3.6 -3 8.6 -3.6 13.2 -4.6 c 4.6 -1 9.6 -3.1 11.2 -7.5 c 1.7 -4.6 -0.8 -9.5 -2.2 -14.1 c -2.2 -6.5 -1.9 -13.6 0.7 -19.9 c 2.7 -6.3 8.3 -11 15 -12.7 c 6.6 -1.5 14.1 0.9 18.2 6.4 c 5.4 -1.6 11.2 1.1 13.5 6.3 c 1 2.4 0.9 5.1 -0.4 7.4 c -1.4 2.1 -4.4 3.2 -6.7 2 l 1.3 -3.4 c -4.1 1.4 -6.7 8.8 -6.2 13 c 0.5 4.3 3 8 5.6 11.5 s 5.2 7 6.3 11.2 c 1.6 6 -0.6 12.6 -4.5 17.4 s -9.4 8.1 -15.2 10.5 c -4.3 1.8 -8.7 3.2 -13.3 4.1 c 0.8 -1.6 1.6 -3.2 2.4 -4.7 l -9.6 5.8 c -1.9 0.2 -3.7 0.3 -5.6 0.3 c -5.5 0.1 -11 -0.5 -16.1 -2.7 c -5 -2.2 -9.4 -6.2 -11.2 -11.3 c -0.6 -1.7 -0.9 -3.4 -0.8 -5.2 c 4.4 -1 8.9 -1.9 13.3 -2.9 Z" fill="#2f2e41"/><path d="M 283.2 578.8 h -33.2 l -0.1 -0.3 c -0.4 -0.8 -0.8 -1.6 -1.2 -2.4 c -3.4 -7.3 -4.9 -15.7 -6.1 -23.1 l -1 -5.6 c -0.3 -1.9 0.9 -3.6 2.8 -4 c 0.9 -0.2 1.9 0.1 2.6 0.6 c 5 3.7 10.1 7.3 15.1 11 c 1.9 1.4 4.1 3 6.2 4.7 c 0.2 -1 0.4 -2 0.6 -2.9 c 0.4 -1.9 2.2 -3 4.1 -2.6 c 0.9 0.2 1.7 0.8 2.2 1.5 l 3.9 6.2 c 2.8 4.6 5.3 9 4.8 13.9 c 0 0.1 0 0.1 0 0.2 c -0.1 0.8 -0.3 1.6 -0.6 2.3 l -0.1 0.3 Z" fill="#f0f0f0"/><path d="M 316.5 579.5 l -315.4 0.3 c -0.7 0 -1.2 -0.5 -1.2 -1.2 c 0 -0.7 0.5 -1.2 1.2 -1.2 l 315.4 -0.3 c 0.7 0 1.2 0.5 1.2 1.2 c 0 0.7 -0.5 1.2 -1.2 1.2 Z" fill="#cacaca"/><ellipse cx="89.9" cy="8.6" rx="8.5" ry="8.6" fill="#3f3d56"/><ellipse cx="119.1" cy="8.6" rx="8.5" ry="8.6" fill="#3f3d56"/><ellipse cx="148.3" cy="8.6" rx="8.5" ry="8.6" fill="#3f3d56"/><path d="M 181.6 15.5 c -0.3 0 -0.5 -0.1 -0.7 -0.3 l -5.7 -5.8 c -0.4 -0.4 -0.4 -1 0 -1.4 l 5.7 -5.8 c 0.4 -0.4 1 -0.4 1.4 0 c 0.4 0.4 0.4 1 0 1.4 l -5 5.1 l 5 5.1 c 0.4 0.4 0.4 1 0 1.4 c -0.2 0.2 -0.4 0.3 -0.7 0.3 Z" fill="#3f3d56"/><path d="M 191.2 15.5 c -0.3 0 -0.5 -0.1 -0.7 -0.3 c -0.4 -0.4 -0.4 -1 0 -1.4 l 5 -5.1 l -5 -5.1 c -0.4 -0.4 -0.4 -1 0 -1.4 c 0.4 -0.4 1 -0.4 1.4 0 l 5.7 5.8 c 0.4 0.4 0.4 1 0 1.4 l -5.7 5.8 c -0.2 0.2 -0.5 0.3 -0.7 0.3 Z" fill="#3f3d56"/><path d="M 489.7 1 h -10.6 c -1.2 0 -2.2 1 -2.2 2.2 V 13.8 c 0 1.2 1 2.2 2.2 2.2 h 10.6 c 1.2 0 2.2 -1 2.2 -2.2 V 3.2 c 0 -1.2 -1 -2.2 -2.2 -2.2 Z" fill="#3f3d56"/><path d="M 463.7 1 h -10.6 c -1.2 0 -2.2 1 -2.2 2.2 V 13.8 c 0 1.2 1 2.2 2.2 2.2 h 10.6 c 1.2 0 2.2 -1 2.2 -2.2 V 3.2 c 0 -1.2 -1 -2.2 -2.2 -2.2 Z" fill="#3f3d56"/><path d="M 514.2 1.5 h -10.6 c -1.2 0 -2.2 1 -2.2 2.2 V 14.3 c 0 1.2 1 2.2 2.2 2.2 h 10.6 c 1.2 0 2.2 -1 2.2 -2.2 V 3.7 c 0 -1.2 -1 -2.2 -2.2 -2.2 Z" fill="#3f3d56"/><path d="M 354.3 5.5 h -84.8 c -1.5 0 -2.7 1.2 -2.7 2.7 s 1.2 2.7 2.7 2.7 h 84.8 c 1.5 0 2.7 -1.2 2.7 -2.7 s -1.2 -2.7 -2.7 -2.7 Z" fill="#3f3d56"/></svg>