<svg xmlns="http://www.w3.org/2000/svg" data-name="Layer 1" width="602.1" height="696.9" viewBox="0 0 602.10668 696.91865" xmlns:xlink="http://www.w3.org/1999/xlink"><path d="M 901.1 367.5 q 0 3 -0.1 5.9 c 0 1.3 -0.1 2.6 -0.1 3.9 c 0 0.4 0 0.7 0 1.1 q 0 1.1 -0.1 2.1 q -0.3 6.9 -1 13.7 c 0 0.2 0 0.4 -0.1 0.7 c -0.1 0.5 -0.1 0.9 -0.1 1.4 c -0.1 1.4 -0.3 2.7 -0.5 4 c -0.1 0.9 -0.2 1.8 -0.3 2.7 c -0.1 0.4 -0.1 0.9 -0.2 1.3 c -0.1 0.5 -0.1 0.9 -0.2 1.4 c 0 0.2 -0.1 0.4 -0.1 0.6 c -0.1 0.7 -0.2 1.4 -0.3 2 c -0.1 0.9 -0.3 1.8 -0.4 2.7 q -0.2 1.3 -0.5 2.6 c -0.1 0.9 -0.3 1.8 -0.5 2.6 c -0.2 0.9 -0.3 1.8 -0.5 2.6 q -1.3 6.5 -2.9 13 q -0.6 2.5 -1.3 5 q -1.1 4 -2.3 8.1 c -0.2 0.7 -0.5 1.5 -0.7 2.2 c -0.3 0.8 -0.5 1.7 -0.8 2.5 c -0.3 0.8 -0.5 1.7 -0.8 2.5 c -0.3 0.8 -0.6 1.7 -0.8 2.5 c -0.3 0.8 -0.6 1.6 -0.9 2.5 c -0.3 0.8 -0.6 1.6 -0.9 2.5 c -0.3 0.8 -0.6 1.6 -0.9 2.5 q -0.9 2.5 -1.9 4.9 c -0.3 0.8 -0.7 1.6 -1 2.4 q -2 4.8 -4.2 9.6 c -0.3 0.7 -0.6 1.4 -1 2.1 c -0.2 0.5 -0.4 0.9 -0.7 1.4 c -0.4 0.8 -0.7 1.5 -1.1 2.3 c -0.4 0.8 -0.8 1.5 -1.1 2.3 q -1.2 2.3 -2.4 4.5 c -0.8 1.5 -1.6 3 -2.4 4.5 s -1.7 3 -2.5 4.5 c -0.4 0.7 -0.9 1.5 -1.3 2.2 q -2.6 4.4 -5.4 8.7 q -2.7 4.3 -5.7 8.4 c -1 1.4 -2 2.8 -3 4.2 c -0.4 0.6 -0.8 1.1 -1.2 1.6 c -0.5 0.7 -1 1.4 -1.5 2 a 265.8 265.8 0 0 1 -383 44.2 q -4.4 -3.7 -8.6 -7.5 a 267.4 267.4 0 0 1 -46.7 -56 c -1.6 -2.6 -3.2 -5.2 -4.7 -7.8 a 264.8 264.8 0 0 1 -35.5 -132.9 c 0 -146.9 119.1 -266 266 -266 a 265.8 265.8 0 0 1 222.7 120.4 c 0.4 0.7 0.9 1.4 1.3 2 a 264.4 264.4 0 0 1 41.3 124.6 Q 901.1 358 901.1 367.5 Z" transform="translate(-298.9,-101.5)" fill="#f2f2f2"/><path d="M 859.1 224 h -368.4 a 1 1 0 0 1 0 -2 h 367.1 C 858.2 222.7 858.6 223.3 859.1 224 Z" transform="translate(-298.9,-101.5)" fill="#cacaca"/><ellipse cx="214" cy="97.1" rx="10.9" ry="11.2" fill="#3f3d56"/><ellipse cx="251.8" cy="97.1" rx="10.9" ry="11.2" fill="#3f3d56"/><ellipse cx="289.5" cy="97.1" rx="10.9" ry="11.2" fill="#3f3d56"/><path d="M 900.4 348.6 c -9.6 4.4 -18.2 11.4 -25.7 21.1 c -8.7 11.2 -18 19.1 -27.5 24.5 c -0.5 0.3 -0.9 0.5 -1.3 0.7 a 73.5 73.5 0 0 1 -27.5 8.4 a 83.5 83.5 0 0 1 -8.8 0.4 c -1.2 0 -2.4 0 -3.6 -0.1 c -2.9 -0.1 -5.7 -0.4 -8.5 -0.8 c -16 -2.3 -30.5 -8.4 -41.2 -14.2 a 150.1 150.1 0 0 0 -47.2 -16.5 q -4.4 -0.7 -8.9 -1.1 c -1.2 -0.1 -2.4 -0.2 -3.6 -0.3 q -4.5 -0.3 -8.9 -0.3 c -1.5 0 -3 0 -4.5 0.1 c -25.5 1 -58.9 8.3 -88.7 33.7 c -0.4 0.3 -0.8 0.7 -1.2 1 c -0.4 0.3 -0.7 0.7 -1.1 1 a 149.1 149.1 0 0 0 -13.3 13.5 a 169.1 169.1 0 0 0 -13.2 17.3 a 110.1 110.1 0 0 1 -16.6 19.3 a 92.7 92.7 0 0 0 -29.8 67.1 v 0.5 c 0 0.5 0 1.1 0 1.6 h 330.1 c 0.4 -0.5 0.8 -1.1 1.2 -1.6 c 1 -1.4 2 -2.8 3 -4.2 q 2.9 -4.2 5.7 -8.4 q 2.8 -4.3 5.4 -8.7 c 0.4 -0.7 0.9 -1.5 1.3 -2.2 c 0.8 -1.5 1.7 -3 2.5 -4.5 s 1.6 -3 2.4 -4.5 q 1.2 -2.3 2.4 -4.5 c 0.4 -0.8 0.8 -1.5 1.1 -2.3 c 0.4 -0.8 0.7 -1.5 1.1 -2.3 c 0.2 -0.5 0.4 -0.9 0.7 -1.4 c 0.3 -0.7 0.7 -1.4 1 -2.1 q 2.2 -4.7 4.2 -9.6 c 0.3 -0.8 0.7 -1.6 1 -2.4 q 1 -2.4 1.9 -4.9 c 0.3 -0.8 0.6 -1.6 0.9 -2.5 c 0.3 -0.8 0.6 -1.6 0.9 -2.5 c 0.3 -0.8 0.6 -1.6 0.9 -2.5 c 0.3 -0.8 0.6 -1.7 0.8 -2.5 c 0.3 -0.8 0.6 -1.7 0.8 -2.5 c 0.3 -0.8 0.5 -1.7 0.8 -2.5 c 0.2 -0.7 0.5 -1.5 0.7 -2.2 q 1.2 -4 2.3 -8.1 q 0.7 -2.5 1.3 -5 q 1.6 -6.4 2.9 -13 c 0.2 -0.9 0.3 -1.8 0.5 -2.6 c 0.2 -0.9 0.3 -1.8 0.5 -2.6 q 0.2 -1.3 0.5 -2.6 c 0.1 -0.9 0.3 -1.8 0.4 -2.7 c 0.1 -0.7 0.2 -1.4 0.3 -2 c 0 -0.2 0.1 -0.4 0.1 -0.6 c 0.1 -0.5 0.1 -0.9 0.2 -1.4 c 0.1 -0.4 0.1 -0.9 0.2 -1.3 c 0.1 -0.9 0.2 -1.8 0.3 -2.7 c 0.2 -1.3 0.3 -2.7 0.5 -4 h 0 c 0 -0.5 0.1 -0.9 0.1 -1.4 c 0 -0.2 0 -0.4 0.1 -0.7 q 0.7 -6.8 1 -13.7 q 0 -1 0.1 -2.1 c 0 -0.4 0 -0.7 0 -1.1 c 0.1 -1.3 0.1 -2.6 0.1 -3.9 q 0.1 -3 0.1 -5.9 Q 901.1 358 900.4 348.6 Z" transform="matrix(1,0,0,1,-298.9,-101.5)" fill="#007db2"/><rect x="288.2" y="314.2" width="3.6" height="106.9" fill="#3f3d56"/><rect x="397.5" y="264.2" width="3.6" height="156.9" fill="#3f3d56"/><rect x="506.9" y="297" width="3.6" height="124" fill="#3f3d56"/><circle cx="399.5" cy="266.7" r="11.2" fill="#3f3d56"/><circle cx="509" cy="297.7" r="11.2" fill="#3f3d56"/><circle cx="288.1" cy="305.2" r="11.2" fill="#3f3d56"/><path d="M 850.3 523.9 c -0.4 0.6 -0.8 1.1 -1.2 1.6 c -0.5 0.7 -1 1.4 -1.5 2 h -329 v -3.6 Z" transform="translate(-298.9,-101.5)" fill="#3f3d56"/><polygon points="127.1,685.1 137.7,685.1 142.7,644.3 127.1,644.4 127.1,685.1" fill="#ffb8b8"/><path d="M 453.6 787.1 a 13.1 13.1 0 0 0 -4.3 -2.9 a 13.4 13.4 0 0 0 -5.1 -1 l -6.2 -4.7 l -0.3 0.1 l -11.3 4.6 h -3 v 13.7 h 34.1 v -0.4 A 13.2 13.2 0 0 0 453.6 787.1 Z" transform="translate(-298.9,-101.5)" fill="#2f2e41"/><polygon points="176.2,685.1 186.8,685.1 191.8,644.3 176.2,644.4 176.2,685.1" fill="#ffb8b8"/><path d="M 502.7 787.1 a 13.1 13.1 0 0 0 -4.3 -2.9 a 13.3 13.3 0 0 0 -5.1 -1 l -6.2 -4.7 l -0.3 0.1 l -11.3 4.6 h -3 l 0 13.7 h 34.1 v -0.4 A 13.2 13.2 0 0 0 502.7 787.1 Z" transform="translate(-298.9,-101.5)" fill="#2f2e41"/><path d="M 483.6 563.5 L 400.6 565.7 l 1.4 40.4 s -1.4 10.8 1.4 13.7 s 4.3 2.9 2.9 7.9 s 6.2 13.3 5.3 14.2 s -3.1 6 -3.1 6 l 7.2 41.2 s 5.1 71.5 6.5 72.9 s 2.9 0 1.4 3.6 s -2.9 2.2 -1.4 3.6 a 53.2 53.2 0 0 1 3.6 4.3 h 17.5 s 1.3 -7.2 1.3 -7.9 s 1.4 -5.1 1.4 -5.8 s -1.3 -2 -1.3 -2 a 23.8 23.8 0 0 1 -0.9 -4.5 c 0 -1.4 -4.3 -57.1 -4.3 -57.1 l 8.7 -72.2 l 20.9 70.8 s 0 62.1 1.4 63.6 s 1.4 0.7 0.7 3.6 s -3.6 2.2 -1.4 4.3 s 2.9 -1.4 2.2 2.2 l -0.7 3.6 l 21.7 0.3 s 2.9 -6.1 1.4 -8.3 s -1.4 -1.6 0.4 -5.1 s 2.5 -4.3 1.8 -5 s -0.7 -4.6 -0.7 -4.6 l -3.6 -69.1 s -0.7 -72.9 -0.7 -75.1 a 7.2 7.2 0 0 1 0.6 -3.2 v -2.9 l -2.8 -10.4 Z" transform="translate(-298.9,-101.5)" fill="#2f2e41"/><path d="M 577.6 406 a 8.1 8.1 0 0 1 -11.6 4.3 l -36.1 30.2 l -2 -14.8 l 35.3 -27 a 8.1 8.1 0 0 1 14.4 7.3 Z" transform="translate(-298.9,-101.5)" fill="#ffb8b8"/><circle cx="119.7" cy="294.5" r="22.4" fill="#ffb8b8"/><path d="M 436.8 373.8 c -2.1 -5 -11 -7.9 -25.2 -7.5 s -16.6 17.3 -16.6 17.3 c -7.8 7.3 4.8 29.9 7 26.8 c 2.2 -3.1 5.8 -0.2 5.8 -0.2 l -3.5 -19.6 c 3.7 1.4 7.6 2.4 11.1 0.7 l -5.7 -3.1 l 14.3 1.8 l -5.9 -4.5 c 0.1 0 0.3 -0.1 0.4 -0.1 a 20.9 20.9 0 0 0 7.5 1.7 c 3 0 6.2 -1.4 7.5 -4.2 a 6.1 6.1 0 0 0 0.5 -2.4 c 4.1 1.3 6.3 6.2 6.3 6.2 A 76.4 76.4 0 0 0 436.8 373.8 Z" transform="translate(-298.9,-101.5)" fill="#2f2e41"/><path d="M 436.6 419.5 c -5 0 -8.2 0.7 -16 2 c -14.4 2.4 -5.8 16.1 -5.8 16.1 s 0.7 -0.3 -1.1 0 s -7.8 5.5 -7.8 5.5 l -10.7 9.5 c -16.2 12.7 -12.6 32.5 -12.6 32.5 l 23.6 23.7 l -10.3 47.6 s 4.4 7.1 2.1 10.2 s 20 2.3 20 2.3 c 15.4 6.8 69.5 1.1 69.5 1.1 c -0.8 -2 -8 -17.1 -8 -17.1 c 3.1 -5.4 0.1 -13.3 0.1 -13.3 s -3.1 -37.2 -5.1 -42.3 s 5.1 -33 9.8 -32.7 s 34.9 -15.1 34.9 -15.1 s -0.8 -1.2 9.2 -5.3 a 48.9 48.9 0 0 0 15.5 -9.8 l 4.1 -8.2 c -2 0.8 -8.6 -11.8 -8.6 -11.8 l -2.9 1.1 l -1.7 -0.5 s -13.1 3.7 -15.8 6.5 s -3.6 2 -6 2.6 s -2.7 2.3 -3.5 2.1 s -2.1 2.1 -3.2 1.8 s -3.3 0.9 -4.8 1.2 s -12.2 4.8 -12.2 4.8 c -6.6 -3.4 -24.6 -2 -24.6 -2 s -5.9 -3.5 -7.6 0 a 5.7 5.7 0 0 1 -5.1 3.3 l -7.2 -3.1 C 444.4 433.8 436.6 417.9 436.6 419.5 Z" transform="translate(-298.9,-101.5)" fill="#3f3d56"/><path d="M 356.3 742.5 l -1 -22.4 a 72.5 72.5 0 0 0 -33.8 -8.6 c 16.2 13.3 14.2 38.9 25.2 56.7 a 43.6 43.6 0 0 0 32 20.1 l 13.6 8.3 A 73 73 0 0 0 376.8 737.5 a 70.5 70.5 0 0 0 -13 -12 C 360.6 734 356.3 742.5 356.3 742.5 Z" transform="translate(-298.9,-101.5)" fill="#f2f2f2"/><path d="M 298.9 797.3 a 1.2 1.2 0 0 0 1.2 1.2 h 283.3 a 1.2 1.2 0 1 0 0 -2.4 h -283.3 A 1.2 1.2 0 0 0 298.9 797.3 Z" transform="translate(-298.9,-101.5)" fill="#cccccc"/><rect x="289.5" y="302.7" width="6" height="2" fill="#3f3d56"/><path d="M 606.6 404.3 v 2 h 12.1 v -2 Z m 24.2 0 v 2 h 12.1 v -2 Z m 24.2 0 v 2 h 12.1 v -2 Z m 24.2 0 v 2 h 12.1 v -2 Z m 24.2 0 v 2 h 12.1 v -2 Z m 24.2 0 v 2 h 12.1 v -2 Z m 24.2 0 v 2 h 12.1 v -2 Z m 24.2 0 v 2 h 12.1 v -2 Z m 24.2 0 v 2 h 12.1 v -2 Z m 24.2 0 v 2 h 12.1 v -2 Z m 24.2 0 v 2 h 12.1 v -2 Z m 24.2 0 v 2 h 12.1 v -2 Z m 24.2 0 v 2 h 0.9 c 0 -0.2 0.1 -0.4 0.1 -0.6 c 0.1 -0.5 0.1 -0.9 0.2 -1.4 Z" transform="translate(-298.9,-101.5)" fill="#3f3d56"/><rect x="393.5" y="262.7" width="6" height="2" fill="#3f3d56"/><path d="M 710.6 364.3 v 2 h 12.1 v -2 Z m 24.2 0 v 2 h 12.1 v -2 Z m 24.2 0 v 2 h 12.1 v -2 Z m 24.2 0 v 2 h 12.1 v -2 Z m 24.2 0 v 2 h 12.1 v -2 Z m 24.2 0 v 2 h 12.1 v -2 Z m 24.2 0 v 2 h 12.1 v -2 Z m 24.2 0 v 2 h 12.1 v -2 Z" transform="translate(-298.9,-101.5)" fill="#3f3d56"/><rect x="504.5" y="292.7" width="6" height="2" fill="#3f3d56"/><path d="M 821.6 394.3 v 2 h 12.1 v -2 Z m 24.2 0 v 2 h 12.1 v -2 Z m 24.2 0 v 2 h 12.1 v -2 Z m 24.2 0 v 2 h 5.3 c 0 -0.5 0.1 -0.9 0.1 -1.4 c 0 -0.2 0 -0.4 0.1 -0.7 Z" transform="translate(-298.9,-101.5)" fill="#3f3d56"/><path d="M 452.1 602.8 V 538.4 a 4.9 4.9 0 0 1 4.9 -4.9 h 48.6 a 4.9 4.9 0 0 1 4.9 4.9 v 64.4 a 4.9 4.9 0 0 1 -4.9 4.9 H 457 A 4.9 4.9 0 0 1 452.1 602.8 Z" transform="translate(-298.9,-101.5)" fill="#e6e6e6"/><path d="M 455.8 583.4 V 542 a 4.6 4.6 0 0 1 4.6 -4.6 h 41.8 a 4.6 4.6 0 0 1 4.6 4.6 v 57.3 a 4.6 4.6 0 0 1 -4.6 4.6 H 476.3 A 20.5 20.5 0 0 1 455.8 583.4 Z" transform="translate(-298.9,-101.5)" fill="#ffffff"/><path d="M 462.6 553.5 a 4.5 4.5 0 0 1 4.5 -4.5 h 29 a 4.5 4.5 0 1 1 0 9 h -29 A 4.5 4.5 0 0 1 462.6 553.5 Z" transform="translate(-298.9,-101.5)" fill="#e6e6e6"/><path d="M 462.6 567.5 a 4.5 4.5 0 0 1 4.5 -4.5 h 29 a 4.5 4.5 0 1 1 0 9 h -29 A 4.5 4.5 0 0 1 462.6 567.5 Z" transform="translate(-298.9,-101.5)" fill="#e6e6e6"/><path d="M 462.6 581.5 a 4.5 4.5 0 0 1 4.5 -4.5 h 29 a 4.5 4.5 0 1 1 0 9 h -29 A 4.5 4.5 0 0 1 462.6 581.5 Z" transform="translate(-298.9,-101.5)" fill="#e6e6e6"/><path d="M 453.2 580.3 a 7.5 7.5 0 0 1 -7.5 -8.7 l -41.5 -22.7 l 12.2 -6.6 l 38.5 23.1 a 7.5 7.5 0 0 1 -1.6 14.9 Z" transform="translate(-298.9,-101.5)" fill="#ffb8b8"/><path d="M 429.1 563.5 l -14.7 -2.6 l -5.3 -4.4 l -3.5 -1.8 l -12.2 -8.6 l 0 -0.1 l -19.4 -57.4 a 18.8 18.8 0 0 1 13.9 -21.7 h 0 a 18.8 18.8 0 0 1 23.2 15.9 l 6.3 49.2 l 10.4 10.7 l 4.5 0.9 l 1 4.9 l 4 6.1 Z" transform="translate(-298.9,-101.5)" fill="#3f3d56"/></svg>