<svg xmlns="http://www.w3.org/2000/svg" data-name="Layer 1" width="618.5" height="567.9" viewBox="0 0 618.5 567.88189" xmlns:xlink="http://www.w3.org/1999/xlink"><path d="M 333.9 671.6 c -10.1 7 -20.5 14.2 -27.5 24.3 c -7 10.1 -10.1 23.9 -4.4 34.9 l -0.1 0.7 a 26.4 26.4 0 0 0 25.5 -4.5 c 8.9 -7.5 11.7 -19.8 14 -31.3 l 6.7 -33.8 Z" transform="translate(-290.8,-166.1)" fill="#f0f0f0"/><path d="M 343.7 705.7 c -6.8 1.5 -13.7 3.1 -19.5 6.9 c -5.8 3.8 -10.3 10.3 -9.7 17.2 l -0.2 0.3 a 14.9 14.9 0 0 0 14.2 3 c 6.2 -2 10.3 -7.9 13.9 -13.3 l 10.7 -16.2 Z" transform="translate(-290.8,-166.1)" fill="#f0f0f0"/><path d="M 908.4 196.2 H 330.9 a 0.8 0.8 0 0 1 0 -1.7 H 908.4 a 0.8 0.8 0 0 1 0 1.7 Z" transform="translate(-290.8,-166.1)" fill="#cacaca"/><circle cx="59" cy="9.2" r="9.2" fill="#3f3d56"/><circle cx="90.8" cy="9.2" r="9.2" fill="#3f3d56"/><circle cx="122.7" cy="9.2" r="9.2" fill="#3f3d56"/><path d="M 889.3 171.7 H 866.7 a 1.7 1.7 0 1 1 0 -3.4 h 22.6 a 1.7 1.7 0 0 1 0 3.4 Z" transform="translate(-290.8,-166.1)" fill="#3f3d56"/><path d="M 889.3 178 H 866.7 a 1.7 1.7 0 1 1 0 -3.4 h 22.6 a 1.7 1.7 0 0 1 0 3.4 Z" transform="translate(-290.8,-166.1)" fill="#3f3d56"/><path d="M 889.3 184.3 H 866.7 a 1.7 1.7 0 1 1 0 -3.4 h 22.6 a 1.7 1.7 0 0 1 0 3.4 Z" transform="translate(-290.8,-166.1)" fill="#3f3d56"/><rect x="49.5" y="66.1" width="383.1" height="229.7" fill="#f0f0f0"/><rect x="479.5" y="66.1" width="120.7" height="72.4" fill="#f0f0f0"/><path d="M 866.9 337.8 H 795.1 a 3.4 3.4 0 0 1 0 -6.8 h 71.8 a 3.4 3.4 0 0 1 0 6.8 Z" transform="translate(-290.8,-166.1)" fill="#e4e4e4"/><path d="M 855.3 326.2 H 806.7 a 3.4 3.4 0 0 1 0 -6.8 h 48.7 a 3.4 3.4 0 0 1 0 6.8 Z" transform="translate(-290.8,-166.1)" fill="#e4e4e4"/><rect x="479.5" y="197.7" width="120.7" height="72.4" fill="#f0f0f0"/><path d="M 866.9 469.4 H 795.1 a 3.4 3.4 0 0 1 0 -6.8 h 71.8 a 3.4 3.4 0 0 1 0 6.8 Z" transform="translate(-290.8,-166.1)" fill="#e4e4e4"/><path d="M 855.3 457.8 H 806.7 a 3.4 3.4 0 0 1 0 -6.8 h 48.7 a 3.4 3.4 0 0 1 0 6.8 Z" transform="translate(-290.8,-166.1)" fill="#e4e4e4"/><circle cx="247.7" cy="161.1" r="28.6" fill="#9e616a"/><polygon points="295.9,295.8 224.2,295.8 228.2,205.2 228.7,204.6 235.8,197.1 258.5,197.1 266.9,205.3 267.5,205.9 285.4,223 295.9,295.8" fill="#007db2"/><path d="M 534.8 461.9 h -54.5 c -0.4 -34.7 -0.6 -60.9 -0.6 -60.9 l 2.8 -1.7 l 0 0 l 30.6 -18.6 l 6.4 -10.4 l 0 0.4 l 1.9 22 S 531.6 425.8 534.8 461.9 Z" transform="translate(-290.8,-166.1)" fill="#2f2e41"/><path d="M 608.9 461.9 h -48.5 c -2.6 -11.8 -3.9 -22.9 -3.4 -32.3 c 2.4 -38.1 -3.1 -59.3 -0.7 -59.3 l 1.3 1 l 15 11.8 l 19.7 7.2 l 13.7 5 l 2.4 0.9 v 1.1 C 608.3 403.2 608.4 429.9 608.9 461.9 Z" transform="translate(-290.8,-166.1)" fill="#2f2e41"/><path d="M 511.4 336.1 s 2.4 -4.3 1.9 -18.5 s 21.1 -6.2 39.3 -7.5 s 14.3 23.8 14.3 23.8 s 1.3 -1.5 4.1 -13.6 s -3.6 -24.2 -3.6 -24.2 c -1.9 -12.8 -12 -8.7 -12 -8.7 c 4.9 1.9 3.9 5.9 3.9 5.9 c -4.1 -7.2 -14.2 -3.1 -14.2 -3.1 c -13.5 -8.4 -27.1 2.7 -27.1 2.7 c -16.3 3.7 -6.7 16.6 -6.7 16.6 C 495 317.7 511.4 336.1 511.4 336.1 Z" transform="translate(-290.8,-166.1)" fill="#2f2e41"/><path d="M 464.5 461.9 c 1.4 -27.8 2.5 -49.6 2 -51.3 c -1.2 -4.7 15.4 -11 15.9 -11.2 l 0 0 h 0 l 3.2 1.7 l 2.3 60.9 Z" transform="translate(-290.8,-166.1)" fill="#2f2e41"/><path d="M 620.3 461.9 H 595.7 L 588.7 392.3 l 2.9 -2.1 s 0.3 0.1 0.7 0.2 c 2.3 0.6 9.5 2.5 13.7 5 a 8.3 8.3 0 0 1 2.4 2 a 2.4 2.4 0 0 1 0.6 1.7 C 608.7 401.1 614 428.9 620.3 461.9 Z" transform="translate(-290.8,-166.1)" fill="#2f2e41"/><path d="M 661.7 489.9 H 401.9 a 3.8 3.8 0 0 0 0 7.5 H 661.7 a 3.8 3.8 0 1 0 0 -7.5 Z" transform="translate(-290.8,-166.1)" fill="#cacaca"/><path d="M 591.3 489.9 v 7.5 H 401.9 a 3.8 3.8 0 0 1 0 -7.5 Z" transform="translate(-290.8,-166.1)" fill="#3f3d56"/><circle cx="300.6" cy="327.7" r="7.5" fill="#3f3d56"/><path d="M 531.8 556.6 a 15.6 15.6 0 1 1 15.6 -15.6 A 15.6 15.6 0 0 1 531.8 556.6 Z m 0 -29.9 a 14.4 14.4 0 1 0 14.4 14.4 A 14.4 14.4 0 0 0 531.8 526.6 Z" transform="translate(-290.8,-166.1)" fill="#007db2"/><path d="M 529.8 549.4 a 0.6 0.6 0 0 1 -0.6 -0.6 V 533.2 a 0.6 0.6 0 1 1 1.2 0 v 15.6 A 0.6 0.6 0 0 1 529.8 549.4 Z" transform="translate(-290.8,-166.1)" fill="#007db2"/><path d="M 533.9 549.4 a 0.6 0.6 0 0 1 -0.6 -0.6 V 533.2 a 0.6 0.6 0 1 1 1.2 0 v 15.6 A 0.6 0.6 0 0 1 533.9 549.4 Z" transform="translate(-290.8,-166.1)" fill="#007db2"/><path d="M 460.5 541 A 15.6 15.6 0 1 1 476.1 556.6 A 15.6 15.6 0 0 1 460.5 541 Z m 1.2 0 A 14.4 14.4 0 1 0 476.1 526.6 A 14.4 14.4 0 0 0 461.7 541 Z" transform="translate(-290.8,-166.1)" fill="#3f3d56"/><path d="M 482.8 546.3 a 0.5 0.5 0 0 0 0.2 -0.9 l -7.5 -4.3 l 7.5 -4.3 a 0.5 0.5 0 0 0 -0.5 -0.9 l -8.2 4.7 a 0.5 0.5 0 0 0 0 0.9 l 8.2 4.7 A 0.5 0.5 0 0 0 482.8 546.3 Z" transform="translate(-290.8,-166.1)" fill="#3f3d56"/><path d="M 471.8 548 a 0.5 0.5 0 0 0 0.5 -0.5 V 534.5 a 0.5 0.5 0 0 0 -1 0 V 547.5 A 0.5 0.5 0 0 0 471.8 548 Z" transform="translate(-290.8,-166.1)" fill="#3f3d56"/><path d="M 587.6 556.6 a 15.6 15.6 0 1 1 15.6 -15.6 A 15.6 15.6 0 0 1 587.6 556.6 Z m 0 -29.9 a 14.4 14.4 0 1 0 14.4 14.4 A 14.4 14.4 0 0 0 587.6 526.6 Z" transform="translate(-290.8,-166.1)" fill="#3f3d56"/><path d="M 580.8 546.3 a 0.5 0.5 0 0 1 -0.2 -0.9 l 7.5 -4.3 l -7.5 -4.3 a 0.5 0.5 0 0 1 0.5 -0.9 l 8.2 4.7 a 0.5 0.5 0 0 1 0 0.9 l -8.2 4.7 A 0.5 0.5 0 0 1 580.8 546.3 Z" transform="translate(-290.8,-166.1)" fill="#3f3d56"/><path d="M 591.9 548 a 0.5 0.5 0 0 1 -0.5 -0.5 V 534.5 a 0.5 0.5 0 0 1 1 0 V 547.5 A 0.5 0.5 0 0 1 591.9 548 Z" transform="translate(-290.8,-166.1)" fill="#3f3d56"/><path d="M 382 552.7 a 8 8 0 0 1 1.1 -12.2 l -7.7 -27.3 l 14 4.5 l 5.1 25.2 a 8 8 0 0 1 -12.6 9.8 Z" transform="translate(-290.8,-166.1)" fill="#ffb6b6"/><path d="M 378.2 416.9 l -2.9 -3 s -9 6.2 -7.1 25.3 c 1.4 14.1 -3 20.1 -2.5 61.2 L 378.2 537.9 l 14.5 -7.6 L 382.3 483.9 Z" transform="translate(-290.8,-166.1)" fill="#007db2"/><polygon points="98.4,555.9 108.7,555.9 113.7,515.9 98.4,515.9 98.4,555.9" fill="#ffb6b6"/><path d="M 386.5 718.6 l 20.4 0 h 0 a 13 13 0 0 1 13 13 v 0.4 l -33.5 0 Z" transform="translate(-290.8,-166.1)" fill="#2f2e41"/><polygon points="128.6,552.3 138.9,553.5 148.7,514.4 133.5,512.5 128.6,552.3" fill="#ffb6b6"/><path d="M 417.2 714.6 l 20.3 2.5 l 0 0 a 13 13 0 0 1 11.3 14.5 l -0.1 0.4 l -33.2 -4.1 Z" transform="translate(-290.8,-166.1)" fill="#2f2e41"/><path d="M 383.7 516.7 s -20 13.7 -10 50.7 L 387.3 710.9 l 16.1 -0.1 l 6.8 -70.9 l 4.6 -49.9 l 15.5 51.6 l -12.7 63.3 L 436.3 706.9 l 22.5 -73.6 L 447.9 528.5 Z" transform="translate(-290.8,-166.1)" fill="#2f2e41"/><path d="M 432 410 l -10.2 -8.2 l -27 -1.1 l -19.5 13.2 s -2 46.9 11.2 88.7 l -6.9 17.4 l 69.2 8.7 Z" transform="matrix(1,0,0,1,-290.8,-166.1)" fill="#007db2"/><circle cx="119.4" cy="201.5" r="23.1" fill="#ffb6b6"/><path d="M 416.3 338.9 h -5.1 a 24 24 0 0 0 -30.9 23 L 372.2 388.4 a 5.1 5.1 0 0 0 4.9 6.6 h 3.9 a 11.5 11.5 0 0 0 2 -8 a 23.6 23.6 0 0 1 1.5 5.5 a 9.7 9.7 0 0 1 -0.1 2.5 H 418.5 a 12.7 12.7 0 0 0 -3.1 -9.1 a 45.7 45.7 0 0 1 7.1 9.1 h 0.6 a 5.1 5.1 0 0 0 5.1 -5.1 V 363.9 h 13 A 25 25 0 0 0 416.3 338.9 Z" transform="translate(-290.8,-166.1)" fill="#2f2e41"/><path d="M 442 550.7 a 8 8 0 0 1 1.1 -12.2 l -7.7 -27.3 l 14 4.5 l 5.1 25.2 a 8 8 0 0 1 -12.6 9.8 Z" transform="translate(-290.8,-166.1)" fill="#ffb6b6"/><path d="M 423.2 415.2 l 8.8 -5.2 s 13.8 -2.4 15.3 15.9 s 3.6 66.1 3.6 66.1 l 4.3 40.2 l -16 3.4 l -18.4 -55 Z" transform="translate(-290.8,-166.1)" fill="#007db2"/><path d="M 503.8 733.9 h -212 a 1 1 0 0 1 0 -2 h 212 a 1 1 0 0 1 0 2 Z" transform="translate(-290.8,-166.1)" fill="#cacaca"/></svg>